<svg width="54" height="54" viewBox="0 0 54 54" fill="none" xmlns="http://www.w3.org/2000/svg">
<path d="M0 5C0 2.23858 2.23858 0 5 0H49C51.7614 0 54 2.23858 54 5V49C54 51.7614 51.7614 54 49 54H5C2.23858 54 0 51.7614 0 49V5Z" fill="white"/>
<path fill-rule="evenodd" clip-rule="evenodd" d="M14.1309 30H39.823C41.5727 30 43 28.6423 43 27.0219C43 25.3577 41.5727 24 39.823 24H14.1309C12.4273 24 11 25.3577 11 27.0219C11 28.6423 12.4273 30 14.1309 30Z" fill="#4B9200"/>
<path d="M5 1H49V-1H5V1ZM53 5V49H55V5H53ZM49 53H5V55H49V53ZM1 49V5H-1V49H1ZM5 53C2.79086 53 1 51.2091 1 49H-1C-1 52.3137 1.68629 55 5 55V53ZM53 49C53 51.2091 51.2091 53 49 53V55C52.3137 55 55 52.3137 55 49H53ZM49 1C51.2091 1 53 2.79086 53 5H55C55 1.68629 52.3137 -1 49 -1V1ZM5 -1C1.68629 -1 -1 1.68629 -1 5H1C1 2.79086 2.79086 1 5 1V-1Z" fill="#4B9200"/>
</svg>
