<svg width="54" height="54" viewBox="0 0 54 54" fill="none" xmlns="http://www.w3.org/2000/svg">
<path d="M0 5C0 2.23858 2.23858 0 5 0H49C51.7614 0 54 2.23858 54 5V49C54 51.7614 51.7614 54 49 54H5C2.23858 54 0 51.7614 0 49V5Z" fill="white"/>
<path d="M27 11C25.3432 11 24 12.3432 24 14V24H14C12.3432 24 11 25.3431 11 27C11 28.6568 12.3432 30 14 30H24V40C24 41.6569 25.3432 43 27 43C28.6569 43 30 41.6569 30 40V30H40C41.6568 30 43 28.6568 43 27C43 25.3431 41.6568 24 40 24H30V14C30 12.3432 28.6569 11 27 11Z" fill="#333B41"/>
</svg>
